<svg id="Layer_1" data-name="Layer 1" xmlns="http://www.w3.org/2000/svg" viewBox="0 0 1080 1080"><defs><style>.cls-1{fill:#a8a8a8;}</style></defs><path class="cls-1" d="M905.66,506.46a363.82,363.82,0,0,0-38.55-133.62L864,366.68H777.79V260l-4.09-3.4c-7.07-5.83-14.64-11.62-22.54-17.25a378,378,0,0,0-44.23-26.68,367.48,367.48,0,0,0-133.58-38.55L561,173V538.28l0,.76v1.85l0,42.6H904.71l.95-10.29c1-11,1.51-22.21,1.51-33.41S906.68,517.36,905.66,506.46ZM804,446.54a275.23,275.23,0,0,1,12.56,49.56H648.41V281.74a282.44,282.44,0,0,1,47,25.31c7,4.73,13.92,9.8,20.47,15.14a276.39,276.39,0,0,1,41.72,41.69l8,9.91,7.08,10.55A277.84,277.84,0,0,1,804,446.54Z"/><path class="cls-1" d="M431.63,353.21V281.74a282,282,0,0,0-47,25.31c-7.08,4.73-13.92,9.8-20.43,15.1a277.45,277.45,0,0,0-41.77,41.73c-5.41,6.65-10.48,13.5-15.05,20.43A276.41,276.41,0,0,0,263.51,496.1H431.63v-42H387.9l13.73-18.19a177.29,177.29,0,0,1,34.5-34.5,174.34,174.34,0,0,1,69.27-31.1L519,367.55V583.49H175.29l-.95-10.29c-1-11-1.51-22.21-1.51-33.41s.49-22.43,1.51-33.4a364,364,0,0,1,38.55-133.55,369.23,369.23,0,0,1,26.67-44.18c5.6-7.91,11.39-15.48,17.25-22.55a361,361,0,0,1,49.56-49.56c7.3-6.05,14.87-11.84,22.47-17.21a357.84,357.84,0,0,1,44.31-26.68,363,363,0,0,1,133.5-38.55L519,173V325.63l-9.76,1.4a213.58,213.58,0,0,0-61.44,18.5Z"/><path class="cls-1" d="M897.49,625.48l-4.13,14.45a367,367,0,0,1-52.92,111c-5.56,7.87-11.35,15.43-17.22,22.51A363.1,363.1,0,0,1,773.67,823c-7,5.83-14.61,11.62-22.48,17.18a370.5,370.5,0,0,1-44.26,26.71l-16.49,8.44v-99.2l5-3.36c7.22-4.85,14.18-10,20.73-15.36A278.27,278.27,0,0,0,757.62,716c.84-1.06,1.71-2.08,2.5-3.14h-56.9a236.41,236.41,0,0,1-54.78,38.74V907H561V689.11l9.11-1.81a148.37,148.37,0,0,0,60.15-27A152.53,152.53,0,0,0,660.51,630l3.41-4.5Z"/><path class="cls-1" d="M519,689.15V907H431.63V751.61a237.82,237.82,0,0,1-54.78-38.74H319.92c.79,1,1.62,2,2.46,3.06a278.82,278.82,0,0,0,41.42,41.51c6.62,5.37,13.58,10.51,20.81,15.36l5,3.36v99.16l-16.49-8.4a354.42,354.42,0,0,1-44.31-26.71c-7.56-5.3-15.17-11.08-22.51-17.18a364.8,364.8,0,0,1-49.55-49.55c-5.87-7.12-11.66-14.68-17.18-22.51a365.66,365.66,0,0,1-53-111l-4.09-14.45H416.12l3.41,4.5a153.75,153.75,0,0,0,30.26,30.3,148.23,148.23,0,0,0,60.12,27Z"/></svg>